<?xml version="1.0" encoding="utf-8"?>
<!-- Generator: Adobe Illustrator 16.0.0, SVG Export Plug-In . SVG Version: 6.00 Build 0)  -->
<!DOCTYPE svg PUBLIC "-//W3C//DTD SVG 1.1//EN" "http://www.w3.org/Graphics/SVG/1.1/DTD/svg11.dtd">
<svg version="1.1" id="Layer_1" xmlns="http://www.w3.org/2000/svg" xmlns:xlink="http://www.w3.org/1999/xlink" x="0px" y="0px"
	 width="29.517px" height="30px" viewBox="0.101 0 29.517 30" enable-background="new 0.101 0 29.517 30" xml:space="preserve">
<g>
	<g>
		<path fill="none" stroke="#FFFFFF" stroke-width="2" stroke-miterlimit="10" d="M28.393,23.493c-8.929,0-17.855,0-26.784,0
			c-0.016-0.025-0.032-0.051-0.047-0.076c0.429-0.393,0.851-0.791,1.287-1.175c0.755-0.664,1.604-1.251,2.037-2.196
			c0.202-0.441,0.36-0.943,0.372-1.424c0.043-1.857,0.007-3.721,0.028-5.581c0.007-0.658,0.023-1.329,0.15-1.97
			C5.71,9.694,6.222,8.399,7.014,7.229c0.817-1.201,1.831-2.207,3.093-2.943c0.711-0.415,1.443-0.793,2.266-0.938
			c0.302-0.055,0.346-0.311,0.398-0.523c0.219-0.887,0.74-1.428,1.646-1.641c0.867-0.203,1.62-0.035,2.224,0.597
			c0.254,0.264,0.443,0.63,0.549,0.981c0.113,0.391,0.291,0.625,0.688,0.715c0.977,0.222,1.838,0.695,2.648,1.263
			c1.617,1.134,2.781,2.626,3.514,4.464c0.469,1.18,0.719,2.395,0.712,3.665c-0.013,1.849-0.015,3.698,0,5.548
			c0.008,0.924,0.209,1.809,0.885,2.486c0.472,0.476,1.007,0.892,1.509,1.339c0.435,0.385,0.862,0.774,1.293,1.164
			C28.424,23.435,28.409,23.464,28.393,23.493z"/>
	</g>
	<path fill="none" stroke="#FFFFFF" stroke-width="2" stroke-miterlimit="10" d="M18.878,25.019c0,2.144-1.735,3.879-3.876,3.879
		c-2.142,0-3.876-1.735-3.876-3.879"/>
</g>
</svg>
