<?xml version="1.0" encoding="utf-8"?>
<!-- Generator: Adobe Illustrator 16.0.0, SVG Export Plug-In . SVG Version: 6.00 Build 0)  -->
<!DOCTYPE svg PUBLIC "-//W3C//DTD SVG 1.1//EN" "http://www.w3.org/Graphics/SVG/1.1/DTD/svg11.dtd">
<svg version="1.1" id="Layer_1" xmlns="http://www.w3.org/2000/svg" xmlns:xlink="http://www.w3.org/1999/xlink" x="0px" y="0px"
	 width="50px" height="50px" viewBox="0 0 50 50" enable-background="new 0 0 50 50" xml:space="preserve">
<g>
	<g>
		<path fill-rule="evenodd" clip-rule="evenodd" fill="none" stroke="#FFFFFF" stroke-width="3" stroke-miterlimit="10" d="
			M47.392,39.205c-14.93,0-29.858,0-44.787,0c-0.026-0.044-0.053-0.086-0.078-0.13c0.717-0.655,1.423-1.322,2.152-1.963
			c1.262-1.109,2.683-2.092,3.406-3.672c0.338-0.738,0.602-1.579,0.621-2.381c0.073-3.109,0.013-6.222,0.047-9.333
			c0.012-1.1,0.039-2.222,0.252-3.295c0.459-2.3,1.314-4.467,2.639-6.42c1.366-2.014,3.062-3.693,5.172-4.924
			c1.188-0.694,2.412-1.327,3.789-1.57C21.11,5.428,21.183,5,21.271,4.641c0.365-1.483,1.238-2.386,2.753-2.742
			c1.449-0.341,2.708-0.058,3.719,0.998c0.422,0.441,0.742,1.052,0.915,1.642c0.191,0.652,0.488,1.042,1.152,1.193
			c1.632,0.371,3.074,1.162,4.429,2.112c2.704,1.896,4.652,4.391,5.875,7.465c0.784,1.972,1.202,4.001,1.19,6.127
			c-0.02,3.093-0.024,6.186,0.001,9.279c0.013,1.544,0.35,3.021,1.479,4.157c0.79,0.796,1.683,1.49,2.524,2.237
			c0.725,0.644,1.441,1.298,2.163,1.948C47.446,39.106,47.419,39.155,47.392,39.205z"/>
	</g>
	<path fill-rule="evenodd" clip-rule="evenodd" fill="none" stroke="#FFFFFF" stroke-width="3" stroke-miterlimit="10" d="
		M31.482,41.755c0,3.581-2.902,6.483-6.482,6.483c-3.581,0-6.482-2.902-6.482-6.483"/>
</g>
</svg>
