<?xml version="1.0" encoding="utf-8"?>
<!-- Generator: Adobe Illustrator 16.0.0, SVG Export Plug-In . SVG Version: 6.00 Build 0)  -->
<!DOCTYPE svg PUBLIC "-//W3C//DTD SVG 1.1//EN" "http://www.w3.org/Graphics/SVG/1.1/DTD/svg11.dtd">
<svg version="1.1" id="Layer_1" xmlns="http://www.w3.org/2000/svg" xmlns:xlink="http://www.w3.org/1999/xlink" x="0px" y="0px"
	 width="50px" height="46.428px" viewBox="0 0 50 46.428" enable-background="new 0 0 50 46.428" xml:space="preserve">
<g>
	<path fill="#FFFFFF" d="M36.757,15.729c0.027,2.813,2.328,5.074,5.147,5.047c2.812-0.029,5.073-2.333,5.045-5.148L36.757,15.729z
		 M42.352,19.154c-1.259,0.013-2.288-0.948-2.303-2.147l4.562-0.045C44.623,18.159,43.612,19.143,42.352,19.154z"/>
	<path fill="#FFFFFF" d="M24.567,38.351"/>
	<g>
		<g>
			<path fill="none" stroke="#FFFFFF" stroke-width="3" stroke-miterlimit="10" d="M25.433,24.146
				c1.651-2.116,3.577-4.018,5.246-6.12c0.56-0.705,1.229-1.663,2.044-2.09c1.042-0.549,2.199-0.419,3.325-0.585
				c1.118-0.165,2.12-0.675,2.912-1.486c0.932-0.959,1.507-2.271,1.615-3.598c0.129-1.503-0.483-2.546-1.791-3.278
				c-3.252-1.817-7.574-1.438-9.916,1.714c0,0-8.502,12.467-9.62,13.982c-1.118,1.514-2.754,3.156-4.655,4.266
				c-1.899,1.109-4.587,3.775-5.388,5.244c0,0-2.081,1.865-2.941,2.461c-1.517,1.057-5.558,2.643-3.735,5.105
				c0.618,0.832,2.228,3.361,2.883,4.168c0.443,0.543,0.792,1.211,1.611,0.869c0.851-0.355,1.487-1.834,0.817-2.629
				c-0.557-0.654,0.095-1.219,0.575-1.256c0,0,3.751-3.031,5.395-3.643c2.25-0.838,4.803-0.453,7.125-1.105
				c2.715-0.766,5.74-2.275,7.699-4.352c0.371-0.393,3.286-4.117,2.332-4.576c1.566,0.748,3.28,1.219,4.993,1.449
				c2.889,0.389,5.59-0.9,7.726-2.783c2.028-1.789,3.178-4.593,3.742-7.168c0.599-2.708,0.811-5.617-0.173-8.265
				c-0.722-1.951-1.877-3.587-3.398-4.987c-2.403-2.215-5.13-3.542-8.387-3.864c-3.386-0.333-6.333,0.321-9.082,2.357
				c-2.928,2.169-4.333,5.921-4.866,9.415c-0.268,1.763,0.156,3.468,0.602,5.163"/>
			<path fill="none" stroke="#FFFFFF" stroke-width="3" stroke-miterlimit="10" d="M20.536,20.854c0,0-0.831-6.495-5.502-5.078
				l-7.502,7.926l5.234,4.579"/>
			<polyline fill="none" stroke="#FFFFFF" stroke-width="3" stroke-miterlimit="10" points="8.249,24.276 5.253,28.989 
				9.906,25.606 			"/>
		</g>
		<path fill="none" stroke="#FFFFFF" stroke-width="3" stroke-miterlimit="10" d="M38.865,2.379c0,0,9.099-2.417,7.543,6.287"/>
	</g>
</g>
</svg>
