<?xml version="1.0" encoding="utf-8"?>
<!-- Generator: Adobe Illustrator 16.0.0, SVG Export Plug-In . SVG Version: 6.00 Build 0)  -->
<!DOCTYPE svg PUBLIC "-//W3C//DTD SVG 1.1//EN" "http://www.w3.org/Graphics/SVG/1.1/DTD/svg11.dtd">
<svg version="1.1" id="Layer_1" xmlns="http://www.w3.org/2000/svg" xmlns:xlink="http://www.w3.org/1999/xlink" x="0px" y="0px"
	 width="58.75px" height="46.428px" viewBox="-4.375 0 58.75 46.428" enable-background="new -4.375 0 58.75 46.428"
	 xml:space="preserve">
<g>
	<path fill="none" stroke="#FFFFFF" stroke-width="3" stroke-miterlimit="10" d="M25.786,25.155
		c2.149-2.047,4.562-3.813,6.727-5.841c0.725-0.681,1.612-1.619,2.57-1.954c1.229-0.431,2.472-0.102,3.729-0.102
		c1.247,0.001,2.426-0.395,3.422-1.153c1.175-0.896,2.014-2.237,2.349-3.67c0.383-1.624-0.117-2.861-1.429-3.872
		c-3.26-2.514-8.043-2.799-11.115,0.267c0,0-11.308,12.251-12.775,13.724c-1.468,1.475-3.52,3.005-5.778,3.91
		c-2.255,0.904-5.624,3.384-6.736,4.858c0,0-2.576,1.703-3.613,2.215c-1.83,0.909-6.502,1.991-4.909,4.974
		c0.54,1.012,1.892,4.035,2.476,5.022c0.396,0.666,0.67,1.454,1.62,1.209c0.988-0.249,1.92-1.764,1.317-2.739
		c-0.503-0.806,0.302-1.316,0.833-1.28c0,0,4.588-2.705,6.484-3.109c2.595-0.554,5.323,0.281,7.967-0.056
		c3.091-0.399,6.642-1.557,9.117-3.513c0.468-0.366,4.258-3.968,3.29-4.623c1.59,1.07,3.387,1.863,5.222,2.393
		c3.095,0.893,6.254-0.079,8.896-1.793c2.503-1.625,4.215-4.506,5.246-7.229c1.092-2.863,1.797-6.006,1.148-9.061
		c-0.471-2.249-1.471-4.223-2.908-6c-2.267-2.81-5.03-4.701-8.538-5.579c-3.646-0.912-6.974-0.676-10.309,1.105
		c-3.551,1.897-5.692,5.77-6.84,9.503c-0.577,1.883-0.389,3.815-0.175,5.741"/>
	<path fill="none" stroke="#FFFFFF" stroke-width="3" stroke-miterlimit="10" d="M43.989,3.537c0,0,10.335-1.168,7.227,8.091"/>
	<path fill="#FFFFFF" d="M39.526,17.788c-0.426,3.081,1.723,5.921,4.808,6.35c3.078,0.424,5.924-1.73,6.349-4.811L39.526,17.788z
		 M45.087,22.435c-1.38-0.188-2.349-1.405-2.171-2.719l4.995,0.69C47.729,21.716,46.465,22.628,45.087,22.435z"/>
	<path fill="none" stroke="#FFFFFF" stroke-width="3" stroke-miterlimit="10" d="M21.33,20.378c0,0-16.223-1.754-18.769-5.3
		c0,0,0.337,7.084,3.22,7.017c2.881-0.068-1.156,3.789-1.475,3.939c-0.318,0.153,1.416,3.88,3.671,4.017"/>
</g>
</svg>
