<?xml version="1.0" encoding="utf-8"?>
<!-- Generator: Adobe Illustrator 16.0.0, SVG Export Plug-In . SVG Version: 6.00 Build 0)  -->
<!DOCTYPE svg PUBLIC "-//W3C//DTD SVG 1.1//EN" "http://www.w3.org/Graphics/SVG/1.1/DTD/svg11.dtd">
<svg version="1.1" id="Layer_1" xmlns="http://www.w3.org/2000/svg" xmlns:xlink="http://www.w3.org/1999/xlink" x="0px" y="0px"
	 width="100px" height="20px" viewBox="0 0 100 20" enable-background="new 0 0 100 20" xml:space="preserve">
<image overflow="visible" width="231" height="131" xlink:href="../../../../Desktop/Screen Shot 2014-01-13 at 11.16.13 AM.png"  transform="matrix(1 0 0 1 -235.9995 -55.5)">
</image>
<g>
	<path fill="#6B81B6" d="M0,15c0,2.761,2.239,5,5,5h90c2.762,0,5-2.239,5-5V5c0-2.761-2.238-5-5-5H5C2.239,0,0,2.239,0,5V15z"/>
</g>
<line fill="none" stroke="#666C81" stroke-miterlimit="10" x1="21.333" y1="0" x2="21.333" y2="20"/>
<text transform="matrix(1 0 0 1 24.6577 12.7441)" fill="none" stroke="#FFFFFF" stroke-miterlimit="10" font-family="'MavenProLight300-Regular'" font-size="8.6626">Login w/ Facebook</text>
<path fill="#FFFFFF" d="M13.252,20H9.447v-8.139H6.541V8.796h2.906c0,0-0.529-6.13,2.854-6.13s4.069,0,4.069,0V6.26l-2.167,0.052
	c0,0-0.951-0.052-0.951,0.74c0,0.793,0,1.691,0,1.691h3.118v3.118h-3.118V20z"/>
</svg>
