<?xml version="1.0" encoding="utf-8"?>
<!-- Generator: Adobe Illustrator 16.0.0, SVG Export Plug-In . SVG Version: 6.00 Build 0)  -->
<!DOCTYPE svg PUBLIC "-//W3C//DTD SVG 1.1//EN" "http://www.w3.org/Graphics/SVG/1.1/DTD/svg11.dtd">
<svg version="1.1" id="Layer_1" xmlns="http://www.w3.org/2000/svg" xmlns:xlink="http://www.w3.org/1999/xlink" x="0px" y="0px"
	 width="27.799px" height="30px" viewBox="0.991 0 27.799 30" enable-background="new 0.991 0 27.799 30" xml:space="preserve">
<g>
	<path fill="none" stroke="#FFFFFF" stroke-width="2" stroke-miterlimit="10" d="M10.692,28.961c-2.375,0-4.751,0.004-7.127,0
		c-0.988-0.004-1.332-0.332-1.336-1.288c-0.005-1.536-0.039-3.075,0.028-4.611c0.022-0.489,0.186-1.2,0.53-1.414
		c1.432-0.88,2.884-2.016,4.464-2.295c2.159-0.383,4.492-0.356,6.651,0.035c1.657,0.3,3.192,1.388,4.719,2.236
		c0.339,0.19,0.577,0.84,0.595,1.288c0.069,1.646,0.04,3.299,0.023,4.947c-0.006,0.792-0.385,1.096-1.337,1.1
		C15.5,28.967,13.095,28.961,10.692,28.961z"/>
	<path fill="none" stroke="#FFFFFF" stroke-width="2" stroke-miterlimit="10" d="M10.311,15.973
		c-2.192-0.002-3.937-1.332-4.934-4.04C4.126,8.535,4.898,5.494,7.49,3.846c1.946-1.237,4.002-1.327,6.04-0.271
		c2.056,1.063,3.162,2.863,3.169,5.142c0.003,1.91-0.574,3.75-1.782,5.291C13.856,15.362,12.412,16.004,10.311,15.973z"/>
	<path fill="none" stroke="#FFFFFF" stroke-width="2" stroke-miterlimit="10" d="M12.355,19.174c1.098-0.71,2.222-1.417,3.418-1.627
		c2.16-0.384,4.493-0.357,6.654,0.035c1.655,0.299,3.191,1.388,4.717,2.235c0.339,0.19,0.577,0.84,0.597,1.289
		c0.068,1.645,0.038,3.298,0.021,4.946c-0.006,0.792-0.384,1.096-1.336,1.1c-2.405,0.008-4.809,0.002-7.213,0.002"/>
	<path fill="none" stroke="#FFFFFF" stroke-width="2" stroke-miterlimit="10" d="M14.141,3.931c0.446-0.743,1.072-1.384,1.872-1.893
		c1.943-1.237,4.002-1.328,6.04-0.271c2.057,1.063,3.162,2.863,3.169,5.142c0.006,1.91-0.573,3.75-1.781,5.291
		c-1.062,1.354-2.506,1.998-4.608,1.967c-1.221-0.002-2.303-0.413-3.194-1.25"/>
</g>
</svg>
