<?xml version="1.0" encoding="utf-8"?>
<!-- Generator: Adobe Illustrator 16.0.0, SVG Export Plug-In . SVG Version: 6.00 Build 0)  -->
<!DOCTYPE svg PUBLIC "-//W3C//DTD SVG 1.1//EN" "http://www.w3.org/Graphics/SVG/1.1/DTD/svg11.dtd">
<svg version="1.1" id="Layer_1" xmlns="http://www.w3.org/2000/svg" xmlns:xlink="http://www.w3.org/1999/xlink" x="0px" y="0px"
	 width="50px" height="50px" viewBox="0 0 50 50" enable-background="new 0 0 50 50" xml:space="preserve">
<g>
	<path fill="none" stroke="#FFFFFF" stroke-width="3" stroke-miterlimit="10" d="M18.317,46.656c-3.685,0-7.37,0.005-11.055,0
		C5.73,46.65,5.196,46.141,5.19,44.658c-0.009-2.383-0.06-4.77,0.045-7.151c0.034-0.761,0.287-1.862,0.821-2.192
		c2.222-1.367,4.474-3.129,6.924-3.563c3.349-0.594,6.968-0.552,10.319,0.057c2.57,0.465,4.951,2.152,7.318,3.468
		c0.528,0.296,0.896,1.304,0.925,1.999c0.108,2.554,0.061,5.115,0.036,7.673c-0.01,1.229-0.597,1.7-2.073,1.705
		C25.776,46.665,22.046,46.656,18.317,46.656z"/>
	<path fill="none" stroke="#FFFFFF" stroke-width="3" stroke-miterlimit="10" d="M17.726,26.508c-3.4-0.003-6.107-2.064-7.653-6.266
		c-1.941-5.271-0.741-9.988,3.277-12.545c3.018-1.919,6.209-2.059,9.369-0.422c3.19,1.652,4.904,4.443,4.917,7.977
		c0.007,2.964-0.892,5.819-2.765,8.208C23.226,25.559,20.985,26.557,17.726,26.508z"/>
	<path fill="none" stroke="#FFFFFF" stroke-width="3" stroke-miterlimit="10" d="M20.896,31.475
		c1.703-1.104,3.447-2.197,5.305-2.525c3.35-0.595,6.968-0.553,10.318,0.056c2.57,0.465,4.951,2.152,7.318,3.468
		c0.527,0.296,0.896,1.304,0.925,2c0.108,2.552,0.061,5.114,0.036,7.673c-0.011,1.227-0.597,1.698-2.074,1.703
		c-3.729,0.014-7.458,0.003-11.187,0.003"/>
	<path fill="none" stroke="#FFFFFF" stroke-width="3" stroke-miterlimit="10" d="M23.666,7.829c0.693-1.152,1.664-2.147,2.904-2.936
		c3.017-1.918,6.209-2.058,9.369-0.421c3.19,1.652,4.904,4.443,4.916,7.978c0.008,2.964-0.89,5.818-2.764,8.208
		c-1.646,2.099-3.887,3.098-7.146,3.048c-1.895-0.001-3.573-0.642-4.957-1.936"/>
</g>
</svg>
