<?xml version="1.0" encoding="utf-8"?>
<!-- Generator: Adobe Illustrator 16.0.0, SVG Export Plug-In . SVG Version: 6.00 Build 0)  -->
<!DOCTYPE svg PUBLIC "-//W3C//DTD SVG 1.1//EN" "http://www.w3.org/Graphics/SVG/1.1/DTD/svg11.dtd">
<svg version="1.1" id="Layer_1" xmlns="http://www.w3.org/2000/svg" xmlns:xlink="http://www.w3.org/1999/xlink" x="0px" y="0px"
	 width="50px" height="50px" viewBox="0 0 50 50" enable-background="new 0 0 50 50" xml:space="preserve">
<path fill="none" stroke="#FFFFFF" stroke-width="3" stroke-miterlimit="10" d="M47.975,33.536c0,0.06,0,0.121,0,0.18
	c-0.056,0.049-0.118,0.089-0.166,0.144c-1.451,1.635-2.896,3.272-4.347,4.902c-1.012,1.142-2.028,2.276-3.066,3.439
	c-1.474-1.305-2.926-2.591-4.391-3.89c-1.524,1.241-3.179,2.187-4.983,2.863c-0.104,0.04-0.217,0.241-0.217,0.367
	c-0.008,2.154,0.001,4.309,0.008,6.461c-3.836,0-7.668,0-11.501,0c-0.011-0.163-0.029-0.326-0.029-0.49
	c-0.003-1.945-0.011-3.892,0-5.838c0.001-0.313-0.103-0.46-0.397-0.593c-0.925-0.413-1.853-0.832-2.738-1.325
	c-0.737-0.41-1.414-0.928-2.135-1.41c-1.439,1.277-2.881,2.557-4.347,3.858c-2.554-2.876-5.084-5.724-7.633-8.592
	c0.143-0.135,0.257-0.249,0.378-0.355c1.801-1.6,3.606-3.197,5.398-4.807c0.126-0.114,0.241-0.352,0.215-0.509
	c-0.324-1.938-0.321-3.874,0.001-5.807c0.047-0.285-0.018-0.435-0.215-0.608c-1.081-0.946-2.153-1.901-3.228-2.854
	c-0.847-0.751-1.69-1.505-2.556-2.275c2.56-2.887,5.087-5.737,7.635-8.611c1.489,1.319,2.939,2.604,4.398,3.896
	c1.432-1.169,2.965-2.095,4.663-2.711c0.48-0.175,0.578-0.408,0.575-0.869c-0.017-2.036,0.006-4.069,0.015-6.104
	c3.833,0,7.666,0,11.501,0c-0.004,2.154,0,4.309-0.017,6.463c-0.003,0.283,0.146,0.346,0.352,0.423
	c1.393,0.521,2.699,1.206,3.905,2.074c0.324,0.232,0.642,0.469,0.976,0.712c1.467-1.304,2.904-2.582,4.351-3.868
	c0.074,0.068,0.122,0.104,0.161,0.147c1.41,1.588,2.818,3.178,4.232,4.763c1.064,1.194,2.134,2.381,3.202,3.572
	c0,0.061,0,0.12,0,0.18c-1.915,1.695-3.831,3.387-5.736,5.094c-0.125,0.111-0.217,0.359-0.192,0.521
	c0.317,1.952,0.32,3.897-0.007,5.849c-0.022,0.151,0.05,0.386,0.166,0.488C44.119,30.134,46.05,31.832,47.975,33.536z
	 M33.652,25.022c0.002-4.511-3.483-8.442-8.286-8.635c-4.827-0.193-8.814,3.579-8.942,8.365c-0.128,4.757,3.64,8.757,8.36,8.876
	C29.628,33.75,33.519,29.971,33.652,25.022z"/>
</svg>
