<?xml version="1.0" encoding="utf-8"?>
<!-- Generator: Adobe Illustrator 16.0.0, SVG Export Plug-In . SVG Version: 6.00 Build 0)  -->
<!DOCTYPE svg PUBLIC "-//W3C//DTD SVG 1.1//EN" "http://www.w3.org/Graphics/SVG/1.1/DTD/svg11.dtd">
<svg version="1.1" id="Layer_1" xmlns="http://www.w3.org/2000/svg" xmlns:xlink="http://www.w3.org/1999/xlink" x="0px" y="0px"
	 width="29.744px" height="29.198px" viewBox="0 0.353 29.744 29.198" enable-background="new 0 0.353 29.744 29.198"
	 xml:space="preserve">
<path fill="none" stroke="#FFFFFF" stroke-width="2" stroke-miterlimit="10" d="M28.486,20.014c0,0.032,0,0.068,0,0.104
	c-0.032,0.027-0.068,0.052-0.098,0.084c-0.853,0.961-1.701,1.922-2.552,2.878c-0.595,0.671-1.192,1.339-1.8,2.021
	c-0.866-0.768-1.719-1.521-2.578-2.285c-0.895,0.729-1.867,1.283-2.926,1.683c-0.062,0.021-0.129,0.142-0.129,0.216
	c-0.004,1.266,0.002,2.528,0.006,3.791c-2.253,0-4.5,0-6.75,0c-0.007-0.096-0.017-0.189-0.017-0.286
	c-0.004-1.143-0.008-2.284,0-3.427c0-0.186-0.062-0.271-0.234-0.35c-0.542-0.242-1.087-0.488-1.607-0.777
	c-0.432-0.24-0.831-0.544-1.253-0.826C7.706,23.584,6.86,24.337,6,25.102c-1.5-1.688-2.985-3.36-4.482-5.047
	c0.084-0.076,0.151-0.146,0.222-0.205c1.058-0.939,2.117-1.879,3.168-2.824c0.074-0.065,0.142-0.205,0.126-0.297
	c-0.19-1.14-0.188-2.274,0-3.411c0.026-0.166-0.01-0.255-0.127-0.356c-0.634-0.556-1.264-1.115-1.893-1.675
	c-0.499-0.44-0.993-0.885-1.501-1.335C3.017,8.256,4.5,6.582,5.996,4.896C6.87,5.67,7.721,6.425,8.577,7.182
	c0.841-0.686,1.741-1.228,2.738-1.59c0.281-0.104,0.338-0.24,0.336-0.511c-0.011-1.194,0.003-2.39,0.01-3.583c2.25,0,4.5,0,6.75,0
	c-0.003,1.265,0,2.529-0.011,3.794c0,0.167,0.086,0.202,0.209,0.247c0.816,0.308,1.584,0.708,2.291,1.219
	c0.189,0.135,0.375,0.274,0.574,0.417c0.859-0.765,1.705-1.516,2.553-2.271c0.043,0.04,0.072,0.061,0.096,0.086
	c0.828,0.934,1.652,1.866,2.482,2.797c0.625,0.7,1.254,1.397,1.881,2.097c0,0.036,0,0.071,0,0.104
	c-1.125,0.996-2.248,1.991-3.366,2.991c-0.076,0.065-0.129,0.21-0.114,0.307c0.188,1.145,0.188,2.288-0.003,3.431
	c-0.015,0.092,0.028,0.229,0.097,0.287C26.223,18.014,27.355,19.011,28.486,20.014z M20.077,15.013
	c0.001-2.649-2.044-4.956-4.865-5.068c-2.832-0.113-5.174,2.1-5.249,4.909c-0.075,2.794,2.138,5.142,4.908,5.212
	C17.717,20.137,20.001,17.918,20.077,15.013z"/>
</svg>
