<?xml version="1.0" encoding="utf-8"?>
<!-- Generator: Adobe Illustrator 16.0.0, SVG Export Plug-In . SVG Version: 6.00 Build 0)  -->
<!DOCTYPE svg PUBLIC "-//W3C//DTD SVG 1.1//EN" "http://www.w3.org/Graphics/SVG/1.1/DTD/svg11.dtd">
<svg version="1.1" id="Layer_1" xmlns="http://www.w3.org/2000/svg" xmlns:xlink="http://www.w3.org/1999/xlink" x="0px" y="0px"
	 width="37.723px" height="30px" viewBox="-28.334 25.5 37.723 30" enable-background="new -28.334 25.5 37.723 30"
	 xml:space="preserve">
<g>
	<path fill="none" stroke="#FFFFFF" stroke-width="2" stroke-miterlimit="10" d="M-8.991,41.761c1.395-1.327,2.957-2.471,4.36-3.787
		c0.47-0.442,1.046-1.05,1.667-1.268c0.795-0.278,1.603-0.063,2.419-0.063c0.809,0,1.573-0.257,2.216-0.75
		c0.762-0.581,1.308-1.447,1.524-2.38c0.248-1.053-0.077-1.854-0.926-2.509c-2.113-1.63-5.216-1.814-7.205,0.174
		c0,0-7.329,7.941-8.28,8.895c-0.951,0.959-2.282,1.952-3.746,2.538c-1.463,0.588-3.646,2.193-4.365,3.146
		c0,0-1.67,1.105-2.344,1.438c-1.186,0.589-4.214,1.291-3.181,3.222c0.35,0.66,1.226,2.618,1.604,3.258
		c0.258,0.433,0.437,0.941,1.053,0.782c0.639-0.16,1.244-1.141,0.854-1.773c-0.326-0.522,0.195-0.855,0.54-0.831
		c0,0,2.973-1.754,4.203-2.016c1.681-0.355,3.45,0.186,5.163-0.034c2.004-0.26,4.304-1.011,5.911-2.276
		c0.299-0.241,2.758-2.573,2.13-2.997c1.031,0.692,2.196,1.207,3.384,1.551c2.006,0.579,4.055-0.051,5.767-1.162
		c1.624-1.053,2.733-2.922,3.402-4.686c0.708-1.857,1.164-3.896,0.745-5.875c-0.306-1.457-0.952-2.74-1.884-3.89
		c-1.47-1.82-3.262-3.045-5.535-3.616c-2.365-0.59-4.521-0.437-6.683,0.716c-2.301,1.228-3.688,3.739-4.433,6.159
		c-0.373,1.223-0.252,2.472-0.113,3.719"/>
	<path fill="none" stroke="#FFFFFF" stroke-width="2" stroke-miterlimit="10" d="M2.809,27.748c0,0,6.701-0.76,4.685,5.241"/>
	<path fill="#FFFFFF" d="M-0.083,36.985c-0.276,1.994,1.118,3.838,3.116,4.118c1.996,0.275,3.841-1.125,4.116-3.123L-0.083,36.985z
		 M3.521,39.996c-0.895-0.121-1.522-0.91-1.407-1.761l3.239,0.447C5.232,39.532,4.413,40.123,3.521,39.996z"/>
	<path fill="none" stroke="#FFFFFF" stroke-width="2" stroke-miterlimit="10" d="M-11.878,38.662c0,0-10.517-1.136-12.168-3.435
		c0,0,0.219,4.594,2.088,4.548c1.867-0.044-0.75,2.457-0.956,2.558c-0.207,0.099,0.917,2.513,2.379,2.604"/>
</g>
</svg>
