<?xml version="1.0" encoding="utf-8"?>
<!-- Generator: Adobe Illustrator 16.0.0, SVG Export Plug-In . SVG Version: 6.00 Build 0)  -->
<!DOCTYPE svg PUBLIC "-//W3C//DTD SVG 1.1//EN" "http://www.w3.org/Graphics/SVG/1.1/DTD/svg11.dtd">
<svg version="1.1" id="Layer_1" xmlns="http://www.w3.org/2000/svg" xmlns:xlink="http://www.w3.org/1999/xlink" x="0px" y="0px"
	 width="50px" height="46.428px" viewBox="0 0 50 46.428" enable-background="new 0 0 50 46.428" xml:space="preserve">
<g>
	<path fill="none" stroke="#FFFFFF" stroke-width="3" stroke-miterlimit="10" d="M22.89,38.098"/>
	<path fill="none" stroke="#FFFFFF" stroke-width="3" stroke-miterlimit="10" d="M25.676,24.881
		c1.845-1.759,3.918-3.276,5.777-5.018c0.623-0.585,1.386-1.391,2.209-1.679c1.055-0.37,2.123-0.087,3.203-0.087
		c1.073,0.001,2.085-0.339,2.94-0.99c1.009-0.77,1.73-1.922,2.018-3.154c0.329-1.394-0.101-2.458-1.227-3.326
		c-2.801-2.159-6.911-2.404-9.549,0.23c0,0-9.714,10.524-10.975,11.79c-1.261,1.267-3.024,2.582-4.964,3.359
		c-1.938,0.776-4.832,2.906-5.787,4.174c0,0-2.213,1.463-3.104,1.902c-1.572,0.781-5.586,1.71-4.217,4.273
		c0.464,0.869,1.625,3.467,2.127,4.314c0.341,0.572,0.576,1.249,1.392,1.039c0.849-0.214,1.65-1.514,1.132-2.353
		c-0.432-0.693,0.259-1.131,0.715-1.1c0,0,3.942-2.324,5.571-2.672c2.229-0.474,4.573,0.242,6.844-0.047
		c2.656-0.343,5.706-1.338,7.833-3.017c0.402-0.316,3.658-3.409,2.826-3.972c1.366,0.919,2.91,1.601,4.486,2.055
		c2.658,0.767,5.373-0.068,7.643-1.54c2.15-1.397,3.62-3.87,4.507-6.21c0.938-2.46,1.543-5.16,0.987-7.784
		c-0.406-1.932-1.264-3.628-2.498-5.155c-1.948-2.414-4.323-4.038-7.337-4.793c-3.133-0.783-5.99-0.58-8.855,0.95
		c-3.051,1.629-4.89,4.957-5.876,8.164c-0.496,1.617-0.335,3.277-0.151,4.931"/>
	<path fill="none" stroke="#FFFFFF" stroke-width="3" stroke-miterlimit="10" d="M41.313,6.31c0,0,8.879-1.004,6.209,6.951"/>
	<path fill="#FFFFFF" d="M37.479,18.552c-0.365,2.646,1.48,5.087,4.131,5.455c2.644,0.364,5.088-1.486,5.453-4.133L37.479,18.552z
		 M42.256,22.544c-1.185-0.161-2.017-1.207-1.865-2.336l4.291,0.593C44.526,21.927,43.439,22.71,42.256,22.544z"/>
	<path fill="none" stroke="#FFFFFF" stroke-width="3" stroke-miterlimit="10" d="M21.847,20.777c0,0-13.937-1.507-16.124-4.553
		c0,0,0.29,6.086,2.766,6.028c2.476-0.058-0.993,3.255-1.267,3.385c-0.274,0.131,1.216,3.332,3.154,3.45"/>
</g>
</svg>
