<?xml version="1.0" encoding="utf-8"?>
<!-- Generator: Adobe Illustrator 16.0.0, SVG Export Plug-In . SVG Version: 6.00 Build 0)  -->
<!DOCTYPE svg PUBLIC "-//W3C//DTD SVG 1.1//EN" "http://www.w3.org/Graphics/SVG/1.1/DTD/svg11.dtd">
<svg version="1.1" id="Layer_1" xmlns="http://www.w3.org/2000/svg" xmlns:xlink="http://www.w3.org/1999/xlink" x="0px" y="0px"
	 width="50px" height="46.428px" viewBox="0 0 50 46.428" enable-background="new 0 0 50 46.428" xml:space="preserve">
<path fill="none" stroke="#000000" stroke-width="4" stroke-miterlimit="10" d="M25.453,24.697c1.73-2.217,3.747-4.209,5.495-6.41
	c0.588-0.738,1.288-1.742,2.142-2.19c1.092-0.575,2.305-0.439,3.483-0.613c1.171-0.173,2.221-0.707,3.05-1.556
	c0.977-1.005,1.579-2.379,1.693-3.769c0.134-1.575-0.508-2.667-1.877-3.434c-3.406-1.903-7.934-1.506-10.388,1.796
	c0,0-8.904,13.059-10.075,14.645c-1.171,1.586-2.885,3.307-4.875,4.469c-1.99,1.16-4.806,3.955-5.644,5.493
	c0,0-2.18,1.951-3.081,2.576c-1.589,1.106-5.822,2.768-3.912,5.348c0.647,0.873,2.334,3.522,3.02,4.366
	c0.464,0.568,0.829,1.27,1.687,0.91c0.892-0.371,1.558-1.92,0.856-2.752c-0.583-0.688,0.1-1.278,0.602-1.316
	c0,0,3.929-3.176,5.651-3.816c2.356-0.877,5.031-0.475,7.462-1.158c2.845-0.801,6.012-2.382,8.064-4.557
	c0.389-0.412,3.442-4.313,2.443-4.794c1.641,0.784,3.436,1.276,5.23,1.519c3.025,0.406,5.854-0.943,8.092-2.916
	c2.125-1.875,3.328-4.812,3.92-7.508c0.628-2.837,0.849-5.884-0.182-8.657c-0.756-2.044-1.965-3.758-3.559-5.224
	c-2.518-2.32-5.374-3.711-8.786-4.048c-3.546-0.348-6.632,0.336-9.512,2.469c-3.067,2.273-4.539,6.202-5.098,9.862
	c-0.281,1.847,0.163,3.633,0.63,5.408"/>
<path d="M37.897,15.88c0.028,2.947,2.438,5.315,5.392,5.287c2.946-0.03,5.313-2.444,5.284-5.392L37.897,15.88z M43.757,19.468
	c-1.318,0.014-2.396-0.993-2.412-2.249l4.778-0.048C46.136,18.426,45.078,19.457,43.757,19.468z"/>
<path fill="none" stroke="#000000" stroke-width="4" stroke-miterlimit="10" d="M20.324,21.25c0,0-0.87-6.803-5.763-5.319
	l-7.859,8.301l5.483,4.796"/>
<polyline fill="none" stroke="#000000" stroke-width="4" stroke-miterlimit="10" points="7.454,24.835 4.315,29.771 9.189,26.228 
	"/>
<path fill="#FFFFFF" d="M25.128,39.575"/>
<path fill="none" stroke="#000000" stroke-width="4" stroke-miterlimit="10" d="M39.524,1.897c0,0,9.529-2.532,7.899,6.586"/>
</svg>
