<?xml version="1.0" encoding="utf-8"?>
<!-- Generator: Adobe Illustrator 16.0.0, SVG Export Plug-In . SVG Version: 6.00 Build 0)  -->
<!DOCTYPE svg PUBLIC "-//W3C//DTD SVG 1.1//EN" "http://www.w3.org/Graphics/SVG/1.1/DTD/svg11.dtd">
<svg version="1.1" id="Layer_1" xmlns="http://www.w3.org/2000/svg" xmlns:xlink="http://www.w3.org/1999/xlink" x="0px" y="0px"
	 width="50px" height="42.5px" viewBox="0 0 50 42.5" enable-background="new 0 0 50 42.5" xml:space="preserve">
<g>
	<path fill="none" stroke="#000000" stroke-miterlimit="10" d="M25.754,21.245c1.969-1.721,4.159-3.188,6.143-4.893
		c0.666-0.572,1.484-1.366,2.339-1.626c1.099-0.334,2.181,0.002,3.29,0.05c1.101,0.047,2.153-0.256,3.059-0.888
		c1.069-0.747,1.861-1.897,2.211-3.146c0.396-1.416,0.001-2.527-1.115-3.466c-2.781-2.337-6.984-2.766-9.806-0.179
		c0,0-10.423,10.371-11.771,11.615c-1.348,1.244-3.215,2.516-5.237,3.229c-2.021,0.712-5.083,2.771-6.119,4.03
		c0,0-2.333,1.4-3.266,1.814c-1.646,0.732-5.804,1.508-4.511,4.199c0.438,0.913,0.917,1.806,1.396,2.698
		c0.324,0.6,0.535,1.305,1.381,1.128c0.88-0.184,1.76-1.483,1.265-2.365c-0.413-0.733,0.315-1.15,0.781-1.098
		c0,0,4.743-0.391,6.428-0.674c1.685-0.284,1.808-1.187,2.494-1.398"/>
	<path fill="none" stroke="#000000" stroke-miterlimit="10" d="M17.088,33.78c0,0,0.138,1.001,0.125,1.365s-0.322,0.628-1.101-0.204
		c-0.778-0.831-1.868-2.075-1.868-2.075s-1.175-0.348-1.599,0.267s-1.982,2.847-1.98,3.156c0.001,0.311-0.366,0.965,0.672,1.247
		c1.038,0.282,2.193-0.577,2.193-0.577s2.265,3.628,2.631,3.941c1.263,1.084,3.073,1.279,4.471,0.324
		c0.932-0.637,1.391-2.068,1.392-3.148c0.001-0.693,0.028-1.274,0.271-1.936c0.164-0.447,0.471-0.889,0.558-1.358
		c0,0,2.329,2.291,5.493,3.216c3.165,0.926,4.406,0.155,5.237-0.519c1.331-1.076,1.764-2.381,0.707-3.866
		c-0.642-0.901-1.659-0.558-2.479-0.171c-0.659,0.311-1.279,0.229-1.982-0.008c-1.532-0.518-2.03-1.028-2.25-1.866
		c0,0,3.407-3.899,3.621-5.132c0.172-0.985-0.062-0.731-0.717-1.216c1.359,1.002,2.911,1.767,4.511,2.302
		c2.696,0.902,5.515,0.164,7.905-1.246c2.271-1.34,3.883-3.813,4.897-6.173c1.068-2.483,1.803-5.228,1.352-7.942
		c-0.333-1.999-1.139-3.776-2.338-5.396c-1.894-2.562-4.26-4.333-7.317-5.238c-3.18-0.94-6.12-0.855-9.124,0.589
		c-3.202,1.539-5.233,4.872-6.384,8.118c-0.581,1.638-0.489,3.348-0.373,5.051"/>
	<path fill="none" stroke="#000000" stroke-miterlimit="10" d="M13.045,31.444c0,0,0.796,1.404,0.917,1.394"/>
	<path fill="none" stroke="#000000" stroke-miterlimit="10" d="M21.87,17c0,0-12.654,1.658-14.054,1.658
		c-1.4,0-3.591,0.332-5.446-0.26c-1.854-0.591,1.192,2.49,1.4,2.646c0.209,0.155,4.217,3.826,6.469,3.561"/>
	<path d="M38.669,15.37c-0.49,2.699,1.3,5.285,4,5.775c2.698,0.489,5.283-1.302,5.773-4.001L38.669,15.37z"/>
	<path fill="#FFFFFF" d="M41.585,17.197c-0.208,1.15,0.603,2.259,1.81,2.478c1.208,0.22,2.356-0.535,2.563-1.684L41.585,17.197z"/>
</g>
</svg>
