<?xml version="1.0" encoding="utf-8"?>
<!-- Generator: Adobe Illustrator 16.0.0, SVG Export Plug-In . SVG Version: 6.00 Build 0)  -->
<!DOCTYPE svg PUBLIC "-//W3C//DTD SVG 1.1//EN" "http://www.w3.org/Graphics/SVG/1.1/DTD/svg11.dtd">
<svg version="1.1" id="Layer_1" xmlns="http://www.w3.org/2000/svg" xmlns:xlink="http://www.w3.org/1999/xlink" x="0px" y="0px"
	 width="50px" height="46.428px" viewBox="0 -11.192 50 46.428" enable-background="new 0 -11.192 50 46.428" xml:space="preserve">
<g>
	<path fill="none" stroke="#000000" stroke-miterlimit="10" d="M25.454,13.235c1.73-2.217,3.746-4.209,5.494-6.41
		c0.588-0.738,1.289-1.742,2.142-2.19c1.092-0.575,2.304-0.439,3.483-0.613c1.171-0.173,2.221-0.707,3.05-1.556
		c0.977-1.005,1.579-2.379,1.694-3.769c0.133-1.575-0.508-2.667-1.877-3.434c-3.407-1.903-7.934-1.506-10.388,1.796
		c0,0-8.904,13.059-10.075,14.645c-1.171,1.586-2.885,3.307-4.875,4.469c-1.99,1.16-4.806,3.955-5.644,5.493
		c0,0-2.18,1.951-3.081,2.576c-1.589,1.106-5.822,2.768-3.912,5.348c0.647,0.873,1.334,1.72,2.02,2.563
		c0.464,0.568,0.829,1.27,1.687,0.911c0.892-0.372,1.558-1.921,0.856-2.753c-0.583-0.688,0.1-1.278,0.602-1.316
		c0,0,4.929-1.373,6.651-2.013c2.356-0.878,5.031-0.475,7.462-1.159c2.845-0.8,6.012-2.381,8.064-4.556
		c0.388-0.412,3.442-4.314,2.443-4.794c1.64,0.784,3.435,1.276,5.231,1.518c3.025,0.407,5.854-0.943,8.091-2.916
		c2.125-1.875,3.328-4.811,3.92-7.507c0.628-2.837,0.849-5.884-0.181-8.657c-0.756-2.044-1.965-3.758-3.559-5.224
		c-2.517-2.32-5.374-3.711-8.786-4.048c-3.546-0.348-6.632,0.336-9.512,2.469c-3.067,2.273-4.538,6.202-5.097,9.862
		c-0.281,1.847,0.163,3.633,0.63,5.408"/>
	<path d="M37.898,4.418c0.029,2.947,2.439,5.315,5.392,5.287c2.947-0.03,5.313-2.444,5.284-5.392L37.898,4.418z"/>
	<path fill="#FFFFFF" d="M41.346,5.757c0.015,1.256,1.094,2.263,2.412,2.249c1.321-0.012,2.379-1.042,2.366-2.297L41.346,5.757z"/>
	<path fill="none" stroke="#000000" stroke-miterlimit="10" d="M20.325,9.787c0,0,1.13-4.803-3.763-3.319l-7.859,8.301l3.483,2.796"
		/>
	<polyline fill="none" stroke="#000000" stroke-miterlimit="10" points="9.455,15.372 8.734,18.226 11.191,16.765 	"/>
	<path fill="#FFFFFF" d="M25.13,28.113"/>
	<path fill="none" stroke="#000000" stroke-miterlimit="10" d="M5.43,32.939c0.463,0.569,0.829,1.271,1.686,0.913
		c0.891-0.374,1.557-1.923,0.857-2.752c-0.585-0.691,0.1-1.279,0.601-1.318c0,0,5.686-2.728,7.407-3.368"/>
	<path fill="none" stroke="#000000" stroke-miterlimit="10" d="M39.525-9.565c0,0,9.529-2.532,7.9,6.586"/>
</g>
</svg>
